<svg
      width="30"
      height="21"
      viewBox="0 0 30 21"
      fill="white"
      xmlns="http://www.w3.org/2000/svg"
    >
      <path
        fillRule="evenodd"
        clipRule="evenodd"
        d="M20 9.30045H19.8928C14.7596 9.30045 9.62631 9.30045 4.49305 9.30344C3.96872 9.30344 3.45597 9.21957 2.96929 9.02488C1.76709 8.55163 0.898031 7.70696 0.373697 6.48788C0.223059 6.13444 0.124566 5.76602 0.0579375 5.38862C0.0399402 5.29351 0.0343664 5.19411 0.0288287 5.09537C0.0263441 5.05106 0.0238669 5.00689 0.0202781 4.96329C0.0181284 4.9355 0.0147822 4.90731 0.0114233 4.879C0.00572978 4.83103 0 4.78275 0 4.73565C0.00289687 4.28037 0.0492469 3.83108 0.179606 3.39676C0.672074 1.7254 1.73812 0.650094 3.34878 0.158869C3.62456 0.0761781 3.91609 0.0504909 4.20587 0.0249573L4.24971 0.0210867C4.48701 -0.000483444 4.72901 -0.000209563 4.96725 6.0063e-05L5.04635 0.000119811H19.8668H20V9.30045ZM1.06313 20.305V11.0017H1.16452C6.32385 11.0017 11.4832 11.0017 16.6425 11.0047C17.0655 11.0047 17.4826 11.0796 17.8853 11.2113C19.2874 11.6756 20.252 12.6251 20.785 14.0419C20.9125 14.3774 20.9965 14.7278 21.0226 15.0902C21.0255 15.1327 21.0285 15.1751 21.0316 15.2175C21.0469 15.4297 21.0622 15.6419 21.0573 15.854C21.0458 16.2284 20.9878 16.5939 20.8806 16.9533C20.4374 18.4599 19.493 19.4723 18.0794 20.0294C17.752 20.1582 17.4102 20.2391 17.0597 20.2721C16.8916 20.287 16.7207 20.302 16.5527 20.302C13.1402 20.304 9.72768 20.3033 6.31516 20.3027L6.28608 20.3027C4.58952 20.3023 2.89295 20.302 1.19639 20.302C1.15294 20.305 1.11528 20.305 1.06313 20.305ZM22.5629 0.520674L21.6628 0.0150781V9.32739C23.9891 8.03703 26.3073 6.74876 28.6344 5.45558C29.0892 5.20282 29.5444 4.94988 30 4.69669C27.5142 3.30205 25.04 1.91217 22.5629 0.520674Z"
        fill="white"
      />
    </svg>